<svg width="243" height="215" viewBox="0 0 243 215" fill="none" xmlns="http://www.w3.org/2000/svg">
<path fill-rule="evenodd" clip-rule="evenodd" d="M147.257 1.81052C147.456 0.724176 148.511 -0.0833392 149.612 0.00688079L180.012 2.49823C181.112 2.58845 181.843 3.54224 181.643 4.62858L179.338 17.1593H144.433L147.257 1.81052ZM143.605 21.6593H178.51L172.899 52.1593H137.994L143.605 21.6593ZM137.167 56.6593L116.667 168.093C116.467 169.179 117.198 170.133 118.299 170.223L141.923 172.159H150.33C150.697 171.839 150.963 171.404 151.054 170.911L172.071 56.6593H137.167ZM136.453 86.1593L121 170.159H145.275L160.728 86.1593H136.453Z" fill="#ED4E0A"/>
<circle cx="78" cy="108.159" r="14" fill="#1B2DD5"/>
<path fill-rule="evenodd" clip-rule="evenodd" d="M227.272 0.159275H151V17.1593H240V12.8872L227.272 0.159275ZM187.58 21.6593H151V52.1593H191.5H240V21.6593H195.42C202.082 23.3956 207 29.4531 207 36.6593C207 45.2197 200.06 52.1593 191.5 52.1593C182.94 52.1593 176 45.2197 176 36.6593C176 29.4531 180.918 23.3956 187.58 21.6593ZM151 77.1593V56.6593H240V64.1715L227.012 77.1593H151Z" fill="#ED4E0A"/>
<circle cx="192" cy="36.1593" r="11" fill="#1B2DD4"/>
<path fill-rule="evenodd" clip-rule="evenodd" d="M71.1785 0.159275L60.2539 26.1593H95.7461L84.8215 0.159275H71.1785ZM44.2873 64.1593L57.3127 33.1593H98.6873L111.713 64.1593H44.2873ZM41.346 71.1593L28.3206 102.159H58.9156C61.4641 94.0451 69.0447 88.1593 78 88.1593C86.9553 88.1593 94.5359 94.0451 97.0844 102.159H127.679L114.654 71.1593H41.346ZM25.3794 109.159H58.0246C58.5456 119.74 67.2896 128.159 78 128.159C88.7104 128.159 97.4544 119.74 97.9754 109.159H130.621L131.734 111.809L121 170.159H145.275L148.617 151.99L155.825 169.144C156.423 170.567 155.418 172.159 153.922 172.159H37.147C25.6531 164.785 16.2664 156.348 9.61032 147.337C11.7806 155.915 16.3018 164.297 22.7766 172.159H2.0779C0.582112 172.159 -0.422602 170.567 0.17534 169.144L9.41268 147.159H122V140.159H12.3539L25.3794 109.159Z" fill="#ED4E0A"/>
<path fill-rule="evenodd" clip-rule="evenodd" d="M110.642 201.277C174.357 210.231 229.965 189.337 234.846 154.608C235.906 147.065 234.486 139.489 230.96 132.159C239.388 142.743 243.448 154.213 241.846 165.608C236.965 200.337 181.357 221.231 117.642 212.277C67.7668 205.267 27.7081 182.045 15 155.63C32.2581 177.301 67.8343 195.26 110.642 201.277Z" fill="#1B2DD4"/>
</svg>
