<svg width="244" height="216" viewBox="0 0 244 216" fill="none" xmlns="http://www.w3.org/2000/svg">
<path d="M174.589 92.7347C174.621 92.7067 174.717 92.726 174.756 92.726C174.923 92.726 175.089 92.726 175.256 92.726C175.643 92.726 176.029 92.726 176.416 92.726C177.729 92.726 179.042 92.726 180.355 92.726" stroke="#1E1E1E"/>
<path d="M176.098 92.3098H179.731" stroke="#1E1E1E"/>
<path d="M175.335 92.1104C175.354 92.0955 175.386 92.101 175.408 92.1037C175.517 92.1171 175.627 92.1243 175.736 92.1316C176.146 92.1586 176.563 92.1364 176.973 92.1364C178.233 92.1364 179.494 92.1364 180.754 92.1364" stroke="#1E1E1E"/>
<rect x="177" y="70.1593" width="1" height="15" fill="#1E1E1E"/>
<mask id="path-5-inside-1_5_231" fill="white">
<path fill-rule="evenodd" clip-rule="evenodd" d="M152.672 1.00607C151.571 0.921441 150.506 1.73151 150.293 2.81542L147.281 18.1686H184.506L186.966 5.63348C187.178 4.54958 186.458 3.60229 185.357 3.51766L152.672 1.00607ZM183.624 22.6686H146.398L140.414 53.1686H177.64L179.162 45.41C177.789 43.0965 177 40.395 177 37.5093C177 32.4673 179.407 27.9876 183.135 25.157L183.624 22.6686ZM117.669 169.107L139.532 57.6686H176.757L154.341 171.925C154.245 172.414 153.975 172.848 153.606 173.169H144.604L127.015 171.817H148.275L162.412 94.9692L138.497 93.0093L124.042 171.588L119.278 171.222C118.176 171.138 117.456 170.19 117.669 169.107Z"/>
</mask>
<path fill-rule="evenodd" clip-rule="evenodd" d="M152.672 1.00607C151.571 0.921441 150.506 1.73151 150.293 2.81542L147.281 18.1686H184.506L186.966 5.63348C187.178 4.54958 186.458 3.60229 185.357 3.51766L152.672 1.00607ZM183.624 22.6686H146.398L140.414 53.1686H177.64L179.162 45.41C177.789 43.0965 177 40.395 177 37.5093C177 32.4673 179.407 27.9876 183.135 25.157L183.624 22.6686ZM117.669 169.107L139.532 57.6686H176.757L154.341 171.925C154.245 172.414 153.975 172.848 153.606 173.169H144.604L127.015 171.817H148.275L162.412 94.9692L138.497 93.0093L124.042 171.588L119.278 171.222C118.176 171.138 117.456 170.19 117.669 169.107Z" fill="#AA1C0F"/>
<path d="M150.293 2.81542L149.312 2.62289L149.312 2.6229L150.293 2.81542ZM152.672 1.00607L152.596 2.00313L152.672 1.00607ZM147.281 18.1686L146.3 17.9761L146.066 19.1686H147.281V18.1686ZM184.506 18.1686V19.1686H185.329L185.488 18.3611L184.506 18.1686ZM186.966 5.63348L185.984 5.44096L185.984 5.44096L186.966 5.63348ZM185.357 3.51766L185.28 4.51472L185.28 4.51472L185.357 3.51766ZM146.398 22.6686V21.6686H145.575L145.417 22.4761L146.398 22.6686ZM183.624 22.6686L184.605 22.8611L184.839 21.6686H183.624V22.6686ZM140.414 53.1686L139.433 52.9761L139.199 54.1686H140.414V53.1686ZM177.64 53.1686V54.1686H178.463L178.621 53.3611L177.64 53.1686ZM179.162 45.41L180.143 45.6025L180.217 45.2279L180.022 44.8996L179.162 45.41ZM183.135 25.157L183.74 25.9534L184.043 25.7231L184.117 25.3495L183.135 25.157ZM139.532 57.6686V56.6686H138.709L138.55 57.4761L139.532 57.6686ZM117.669 169.107L116.687 168.914L116.687 168.914L117.669 169.107ZM176.757 57.6686L177.738 57.8611L177.972 56.6686H176.757V57.6686ZM154.341 171.925L155.322 172.117L155.322 172.117L154.341 171.925ZM153.606 173.169V174.169H153.98L154.262 173.923L153.606 173.169ZM144.604 173.169L144.528 174.166L144.566 174.169H144.604V173.169ZM127.015 171.817V170.817L126.938 172.814L127.015 171.817ZM148.275 171.817V172.817H149.108L149.258 171.998L148.275 171.817ZM162.412 94.9692L163.395 95.1501L163.595 94.0628L162.494 93.9725L162.412 94.9692ZM138.497 93.0093L138.579 92.0127L137.678 91.9388L137.514 92.8284L138.497 93.0093ZM124.042 171.588L123.965 172.586L124.863 172.655L125.025 171.769L124.042 171.588ZM119.278 171.222L119.354 170.225L119.354 170.225L119.278 171.222ZM151.275 3.00794C151.39 2.42166 152 1.95736 152.596 2.00313L152.749 0.00901076C151.142 -0.114473 149.622 1.04136 149.312 2.62289L151.275 3.00794ZM148.262 18.3611L151.275 3.00794L149.312 2.6229L146.3 17.9761L148.262 18.3611ZM184.506 17.1686H147.281V19.1686H184.506V17.1686ZM185.984 5.44096L183.525 17.9761L185.488 18.3611L187.947 5.826L185.984 5.44096ZM185.28 4.51472C185.785 4.55349 186.082 4.94442 185.984 5.44096L187.947 5.826C188.275 4.15473 187.131 2.65109 185.433 2.5206L185.28 4.51472ZM152.596 2.00313L185.28 4.51472L185.433 2.5206L152.749 0.00901076L152.596 2.00313ZM146.398 23.6686H183.624V21.6686H146.398V23.6686ZM141.396 53.3611L147.38 22.8611L145.417 22.4761L139.433 52.9761L141.396 53.3611ZM177.64 52.1686H140.414V54.1686H177.64V52.1686ZM178.181 45.2175L176.658 52.9761L178.621 53.3611L180.143 45.6025L178.181 45.2175ZM180.022 44.8996C178.738 42.7362 178 40.2104 178 37.5093H176C176 40.5795 176.839 43.4567 178.302 45.9205L180.022 44.8996ZM178 37.5093C178 32.7932 180.25 28.6031 183.74 25.9534L182.531 24.3605C178.564 27.3721 176 32.1414 176 37.5093H178ZM182.642 22.4761L182.154 24.9644L184.117 25.3495L184.605 22.8611L182.642 22.4761ZM138.55 57.4761L116.687 168.914L118.65 169.299L140.513 57.8611L138.55 57.4761ZM176.757 56.6686H139.532V58.6686H176.757V56.6686ZM155.322 172.117L177.738 57.8611L175.776 57.4761L153.36 171.732L155.322 172.117ZM154.262 173.923C154.782 173.471 155.179 172.846 155.322 172.117L153.36 171.732C153.311 171.983 153.167 172.225 152.95 172.414L154.262 173.923ZM144.604 174.169H153.606V172.169H144.604V174.169ZM126.938 172.814L144.528 174.166L144.681 172.172L127.092 170.82L126.938 172.814ZM148.275 170.817H127.015V172.817H148.275V170.817ZM161.428 94.7882L147.291 171.636L149.258 171.998L163.395 95.1501L161.428 94.7882ZM138.416 94.006L162.33 95.9658L162.494 93.9725L138.579 92.0127L138.416 94.006ZM125.025 171.769L139.481 93.1902L137.514 92.8284L123.059 171.408L125.025 171.769ZM119.201 172.219L123.965 172.586L124.119 170.591L119.354 170.225L119.201 172.219ZM116.687 168.914C116.359 170.585 117.503 172.089 119.201 172.219L119.354 170.225C118.85 170.187 118.552 169.796 118.65 169.299L116.687 168.914Z" fill="white" mask="url(#path-5-inside-1_5_231)"/>
<circle cx="79" cy="104.169" r="11" fill="#1B2DD5"/>
<circle cx="192" cy="38.1686" r="9" fill="#1B2DD4"/>
<mask id="path-9-inside-2_5_231" fill="white">
<path fill-rule="evenodd" clip-rule="evenodd" d="M111.642 202.286C175.357 211.24 230.965 190.346 235.846 155.617C236.906 148.074 235.486 140.498 231.96 133.169C240.388 143.753 244.448 155.222 242.846 166.618C237.965 201.346 182.357 222.24 118.642 213.286C68.7668 206.276 28.7081 183.055 16 156.639C33.2581 178.31 68.8343 196.27 111.642 202.286Z"/>
</mask>
<path fill-rule="evenodd" clip-rule="evenodd" d="M111.642 202.286C175.357 211.24 230.965 190.346 235.846 155.617C236.906 148.074 235.486 140.498 231.96 133.169C240.388 143.753 244.448 155.222 242.846 166.618C237.965 201.346 182.357 222.24 118.642 213.286C68.7668 206.276 28.7081 183.055 16 156.639C33.2581 178.31 68.8343 196.27 111.642 202.286Z" fill="#1B2DD4"/>
<path d="M235.846 155.617L234.856 155.478L234.856 155.478L235.846 155.617ZM111.642 202.286L111.781 201.296L111.781 201.296L111.642 202.286ZM231.96 133.169L232.742 132.546L231.058 133.602L231.96 133.169ZM242.846 166.618L241.856 166.478L241.856 166.478L242.846 166.618ZM118.642 213.286L118.781 212.296L118.781 212.296L118.642 213.286ZM16 156.639L16.7823 156.016L15.0989 157.073L16 156.639ZM234.856 155.478C232.49 172.31 217.787 186.006 195.455 194.397C173.164 202.773 143.506 205.754 111.781 201.296L111.503 203.276C143.494 207.772 173.497 204.784 196.159 196.269C218.779 187.77 234.321 173.654 236.836 155.757L234.856 155.478ZM231.058 133.602C234.512 140.781 235.885 148.158 234.856 155.478L236.836 155.757C237.928 147.99 236.46 140.216 232.861 132.735L231.058 133.602ZM231.177 133.792C239.488 144.227 243.409 155.428 241.856 166.478L243.836 166.757C245.486 155.016 241.289 143.278 232.742 132.546L231.177 133.792ZM241.856 166.478C239.49 183.31 224.787 197.006 202.455 205.397C180.164 213.773 150.506 216.754 118.781 212.296L118.503 214.276C150.494 218.772 180.497 215.784 203.159 207.269C225.779 198.77 241.321 184.654 243.836 166.757L241.856 166.478ZM118.781 212.296C93.9529 208.806 71.59 201.284 53.8718 191.367C36.1379 181.442 23.1346 169.163 16.9011 156.206L15.0989 157.073C21.5734 170.531 34.9536 183.071 52.895 193.112C70.852 203.163 93.4562 210.756 118.503 214.276L118.781 212.296ZM111.781 201.296C69.1228 195.3 33.8256 177.418 16.7823 156.016L15.2177 157.262C32.6905 179.203 68.5458 197.239 111.503 203.276L111.781 201.296Z" fill="white" mask="url(#path-9-inside-2_5_231)"/>
<mask id="path-11-inside-3_5_231" fill="white">
<path fill-rule="evenodd" clip-rule="evenodd" d="M230.877 3.77391C227.964 2.11574 224.592 1.16861 221 1.16861H152V18.1686H240.776C240.405 15.6994 239.582 13.378 238.395 11.2912L230.877 3.77391ZM188.58 22.6686H152V53.1686H192.5H241V22.6686H196.42C203.082 24.4049 208 30.4625 208 37.6686C208 46.229 201.06 53.1686 192.5 53.1686C183.94 53.1686 177 46.229 177 37.6686C177 30.4625 181.918 24.4049 188.58 22.6686ZM152 78.1686V57.6686H241V58.1686C241 61.5273 240.172 64.6926 238.709 67.4716L230.303 75.8778C227.524 77.3407 224.359 78.1686 221 78.1686H152Z"/>
</mask>
<path fill-rule="evenodd" clip-rule="evenodd" d="M230.877 3.77391C227.964 2.11574 224.592 1.16861 221 1.16861H152V18.1686H240.776C240.405 15.6994 239.582 13.378 238.395 11.2912L230.877 3.77391ZM188.58 22.6686H152V53.1686H192.5H241V22.6686H196.42C203.082 24.4049 208 30.4625 208 37.6686C208 46.229 201.06 53.1686 192.5 53.1686C183.94 53.1686 177 46.229 177 37.6686C177 30.4625 181.918 24.4049 188.58 22.6686ZM152 78.1686V57.6686H241V58.1686C241 61.5273 240.172 64.6926 238.709 67.4716L230.303 75.8778C227.524 77.3407 224.359 78.1686 221 78.1686H152Z" fill="#AA1C0F"/>
<path d="M230.877 3.77391L231.584 3.0668L231.489 2.97146L231.372 2.90478L230.877 3.77391ZM152 1.16861V0.16861H151V1.16861H152ZM152 18.1686H151V19.1686H152V18.1686ZM240.776 18.1686V19.1686H241.938L241.765 18.0199L240.776 18.1686ZM238.395 11.2912L239.264 10.7966L239.197 10.6795L239.102 10.5841L238.395 11.2912ZM152 22.6686V21.6686H151V22.6686H152ZM188.58 22.6686L188.832 23.6363L188.58 21.6686V22.6686ZM152 53.1686H151V54.1686H152V53.1686ZM241 53.1686V54.1686H242V53.1686H241ZM241 22.6686H242V21.6686H241V22.6686ZM196.42 22.6686V21.6686L196.168 23.6363L196.42 22.6686ZM152 57.6686V56.6686H151V57.6686H152ZM152 78.1686H151V79.1686H152V78.1686ZM241 57.6686H242V56.6686H241V57.6686ZM238.709 67.4716L239.416 68.1787L239.524 68.0715L239.594 67.9374L238.709 67.4716ZM230.303 75.8778L230.769 76.7627L230.903 76.6921L231.01 76.5849L230.303 75.8778ZM221 2.16861C224.414 2.16861 227.616 3.06838 230.383 4.64303L231.372 2.90478C228.311 1.1631 224.77 0.16861 221 0.16861V2.16861ZM152 2.16861H221V0.16861H152V2.16861ZM153 18.1686V1.16861H151V18.1686H153ZM240.776 17.1686H152V19.1686H240.776V17.1686ZM237.526 11.7858C238.654 13.7679 239.435 15.9724 239.788 18.3174L241.765 18.0199C241.375 15.4265 240.511 12.9881 239.264 10.7966L237.526 11.7858ZM230.17 4.48101L237.688 11.9983L239.102 10.5841L231.584 3.0668L230.17 4.48101ZM152 23.6686H188.58V21.6686H152V23.6686ZM153 53.1686V22.6686H151V53.1686H153ZM192.5 52.1686H152V54.1686H192.5V52.1686ZM241 52.1686H192.5V54.1686H241V52.1686ZM240 22.6686V53.1686H242V22.6686H240ZM196.42 23.6686H241V21.6686H196.42V23.6686ZM196.168 23.6363C202.401 25.2606 207 30.9288 207 37.6686H209C209 29.9962 203.764 23.5492 196.672 21.7009L196.168 23.6363ZM207 37.6686C207 45.6767 200.508 52.1686 192.5 52.1686V54.1686C201.613 54.1686 209 46.7813 209 37.6686H207ZM192.5 52.1686C184.492 52.1686 178 45.6767 178 37.6686H176C176 46.7813 183.387 54.1686 192.5 54.1686V52.1686ZM178 37.6686C178 30.9288 182.599 25.2606 188.832 23.6363L188.328 21.7009C181.236 23.5492 176 29.9962 176 37.6686H178ZM151 57.6686V78.1686H153V57.6686H151ZM241 56.6686H152V58.6686H241V56.6686ZM242 58.1686V57.6686H240V58.1686H242ZM239.594 67.9374C241.131 65.0182 242 61.6934 242 58.1686H240C240 61.3611 239.213 64.3669 237.824 67.0058L239.594 67.9374ZM231.01 76.5849L239.416 68.1787L238.002 66.7645L229.596 75.1707L231.01 76.5849ZM221 79.1686C224.525 79.1686 227.85 78.2994 230.769 76.7627L229.837 74.993C227.198 76.382 224.192 77.1686 221 77.1686V79.1686ZM152 79.1686H221V77.1686H152V79.1686Z" fill="white" mask="url(#path-11-inside-3_5_231)"/>
<rect x="148" y="59.1686" width="17" height="27" fill="#AA1C0F"/>
<rect x="150" y="24.1686" width="10" height="28" fill="#AA1C0F"/>
<rect x="152" y="2.16861" width="1" height="15" fill="#AA1C0F"/>
<path fill-rule="evenodd" clip-rule="evenodd" d="M75.5011 1.16861C73.488 1.16861 71.6712 2.37586 70.8914 4.23176L65.4292 17.2318C64.0446 20.527 66.4645 24.1686 70.0388 24.1686H87.9612C91.5355 24.1686 93.9554 20.527 92.5709 17.2318L87.1086 4.23176C86.3288 2.37586 84.512 1.16861 82.4989 1.16861H75.5011ZM55.7528 58.1686C52.1785 58.1686 49.7586 54.527 51.1432 51.2318L57.0256 37.2318C57.8054 35.3759 59.6222 34.1686 61.6353 34.1686H96.3647C98.3778 34.1686 100.195 35.3759 100.974 37.2318L106.857 51.2318C108.241 54.527 105.822 58.1686 102.247 58.1686H55.7528ZM47.3493 68.1686C45.3362 68.1686 43.5195 69.3759 42.7397 71.2318L34.7563 90.2318C33.3718 93.527 35.7917 97.1686 39.366 97.1686H57.3924C59.3797 97.1686 61.1316 95.9577 62.214 94.2909C65.7793 88.8003 71.9656 85.1686 79 85.1686C86.0344 85.1686 92.2206 88.8003 95.786 94.2909C96.8684 95.9577 98.6203 97.1686 100.608 97.1686H118.634C122.208 97.1686 124.628 93.527 123.244 90.2318L115.26 71.2318C114.481 69.3759 112.664 68.1686 110.651 68.1686H47.3493ZM26.3528 110.232C27.1326 108.376 28.9494 107.169 30.9624 107.169H54.5706C57.1407 107.169 59.2276 109.152 60.0518 111.586C62.7258 119.484 70.199 125.169 79 125.169C87.801 125.169 95.2742 119.484 97.9482 111.586C98.7724 109.152 100.859 107.169 103.429 107.169H127.038C129.051 107.169 130.867 108.376 131.647 110.232L132.156 111.444C132.533 112.341 132.64 113.328 132.464 114.285L123.086 165.264C122.521 168.336 124.88 171.169 128.004 171.169H142.599C144.729 171.169 146.555 169.648 146.94 167.554V167.554C147.733 163.24 153.651 162.599 155.35 166.642L156.825 170.153C157.423 171.576 156.418 173.169 154.922 173.169H39.613C38.6558 173.169 37.7169 172.896 36.9169 172.37C30.5379 168.18 24.8326 163.66 19.9118 158.895C16.8866 155.966 19.0969 151.169 23.3078 151.169H118C120.761 151.169 123 148.93 123 146.169V146.169C123 143.407 120.761 141.169 118 141.169H20.8782C17.3039 141.169 14.884 137.527 16.2686 134.232L26.3528 110.232ZM11.779 152.295C11.5525 151.627 10.931 151.169 10.2256 151.169V151.169C9.5752 151.169 8.98827 151.559 8.73634 152.158L1.17534 170.153C0.577398 171.576 1.58211 173.169 3.0779 173.169H13.1818C17.4073 173.169 19.8185 168.166 17.6076 164.565C15.1482 160.559 13.1898 156.456 11.779 152.295Z" fill="#AA1C0F"/>
<path d="M156.825 170.153L157.286 169.959L157.286 169.959L156.825 170.153ZM1.17534 170.153L1.6363 170.347L1.6363 170.347L1.17534 170.153ZM17.6076 164.565L18.0337 164.303L17.6076 164.565ZM8.73634 152.158L9.19731 152.352L8.73634 152.158ZM11.779 152.295L11.3055 152.456L11.779 152.295ZM16.2686 134.232L15.8076 134.038L16.2686 134.232ZM19.9118 158.895L19.564 159.254L19.9118 158.895ZM123.086 165.264L123.578 165.354L123.086 165.264ZM132.156 111.444L131.695 111.637L132.156 111.444ZM132.464 114.285L131.973 114.195L132.464 114.285ZM131.647 110.232L132.108 110.038L131.647 110.232ZM97.9482 111.586L97.4746 111.426L97.9482 111.586ZM26.3528 110.232L25.8919 110.038L26.3528 110.232ZM115.26 71.2318L114.799 71.4254L115.26 71.2318ZM123.244 90.2318L123.705 90.0381L123.244 90.2318ZM95.786 94.2909L95.3667 94.5632L95.786 94.2909ZM62.214 94.2909L62.6333 94.5632L62.214 94.2909ZM42.7397 71.2318L43.2006 71.4254L42.7397 71.2318ZM34.7563 90.2318L34.2954 90.0381L34.7563 90.2318ZM106.857 51.2318L107.318 51.0381L106.857 51.2318ZM100.974 37.2318L100.513 37.4254L100.974 37.2318ZM51.1432 51.2318L51.6041 51.4255L51.1432 51.2318ZM57.0256 37.2318L56.5647 37.0381L57.0256 37.2318ZM36.9169 172.37L37.1914 171.952L36.9169 172.37ZM87.1086 4.23176L86.6476 4.42544L87.1086 4.23176ZM92.5709 17.2318L92.1099 17.4254L92.5709 17.2318ZM155.35 166.642L154.889 166.836L155.35 166.642ZM65.4292 17.2318L64.9682 17.0381L65.4292 17.2318ZM65.8901 17.4254L71.3524 4.42544L70.4305 4.03807L64.9682 17.0381L65.8901 17.4254ZM87.9612 23.6686H70.0388V24.6686H87.9612V23.6686ZM86.6476 4.42544L92.1099 17.4254L93.0318 17.0381L87.5695 4.03807L86.6476 4.42544ZM75.5011 1.66861H82.4989V0.66861H75.5011V1.66861ZM56.5647 37.0381L50.6822 51.0381L51.6041 51.4255L57.4866 37.4254L56.5647 37.0381ZM96.3647 33.6686H61.6353V34.6686H96.3647V33.6686ZM107.318 51.0381L101.435 37.0381L100.513 37.4254L106.396 51.4254L107.318 51.0381ZM55.7528 58.6686H102.247V57.6686H55.7528V58.6686ZM35.2173 90.4254L43.2006 71.4254L42.2787 71.0381L34.2954 90.0381L35.2173 90.4254ZM57.3924 96.6686H39.366V97.6686H57.3924V96.6686ZM79 84.6686C71.7892 84.6686 65.4483 88.392 61.7946 94.0186L62.6333 94.5632C66.1104 89.2086 72.1419 85.6686 79 85.6686V84.6686ZM96.2054 94.0186C92.5517 88.392 86.2108 84.6686 79 84.6686V85.6686C85.8581 85.6686 91.8896 89.2086 95.3667 94.5632L96.2054 94.0186ZM118.634 96.6686H100.608V97.6686H118.634V96.6686ZM114.799 71.4254L122.783 90.4254L123.705 90.0381L115.721 71.0381L114.799 71.4254ZM47.3493 68.6686H110.651V67.6686H47.3493V68.6686ZM54.5706 106.669H30.9624V107.669H54.5706V106.669ZM79 124.669C70.4198 124.669 63.1327 119.127 60.5254 111.426L59.5782 111.746C62.3188 119.841 69.9782 125.669 79 125.669V124.669ZM97.4746 111.426C94.8673 119.127 87.5802 124.669 79 124.669V125.669C88.0218 125.669 95.6811 119.841 98.4218 111.746L97.4746 111.426ZM127.038 106.669H103.429V107.669H127.038V106.669ZM132.617 111.25L132.108 110.038L131.186 110.425L131.695 111.637L132.617 111.25ZM123.578 165.354L132.956 114.376L131.973 114.195L122.594 165.174L123.578 165.354ZM142.599 170.669H128.004V171.669H142.599V170.669ZM157.286 169.959L155.811 166.449L154.889 166.836L156.364 170.347L157.286 169.959ZM154.922 173.669C156.804 173.669 158.011 171.685 157.286 169.959L156.364 170.347C156.834 171.467 156.032 172.669 154.922 172.669V173.669ZM39.613 173.669H154.922V172.669H39.613V173.669ZM19.564 159.254C24.5097 164.043 30.2401 168.583 36.6424 172.788L37.1914 171.952C30.8357 167.778 25.1554 163.276 20.2596 158.536L19.564 159.254ZM118 150.669H23.3078V151.669H118V150.669ZM20.8782 141.669H118V140.669H20.8782V141.669ZM25.8919 110.038L15.8076 134.038L16.7296 134.425L26.8138 110.425L25.8919 110.038ZM8.27538 151.965L0.714378 169.959L1.6363 170.347L9.19731 152.352L8.27538 151.965ZM0.714378 169.959C-0.0108961 171.685 1.19641 173.669 3.0779 173.669V172.669C1.96782 172.669 1.16569 171.467 1.6363 170.347L0.714378 169.959ZM3.0779 173.669H13.1818V172.669H3.0779V173.669ZM18.0337 164.303C15.5919 160.326 13.6502 156.257 12.2525 152.135L11.3055 152.456C12.7294 156.655 14.7044 160.792 17.1815 164.827L18.0337 164.303ZM13.1818 173.669C15.5115 173.669 17.3289 172.285 18.2551 170.442C19.1794 168.602 19.2388 166.266 18.0337 164.303L17.1815 164.827C18.1873 166.465 18.1466 168.43 17.3616 169.993C16.5786 171.551 15.0776 172.669 13.1818 172.669V173.669ZM10.2256 150.669C9.37389 150.669 8.60529 151.179 8.27538 151.965L9.19731 152.352C9.37125 151.938 9.77651 151.669 10.2256 151.669V150.669ZM10.2256 151.669C10.7104 151.669 11.1457 151.984 11.3055 152.456L12.2525 152.135C11.9593 151.27 11.1516 150.669 10.2256 150.669V151.669ZM20.8782 140.669C17.6614 140.669 15.4834 137.391 16.7296 134.425L15.8076 134.038C14.2846 137.663 16.9465 141.669 20.8782 141.669V140.669ZM123.5 146.169C123.5 143.131 121.038 140.669 118 140.669V141.669C120.485 141.669 122.5 143.683 122.5 146.169H123.5ZM118 151.669C121.038 151.669 123.5 149.206 123.5 146.169H122.5C122.5 148.654 120.485 150.669 118 150.669V151.669ZM20.2596 158.536C18.9069 157.226 18.7327 155.523 19.3527 154.138C19.9754 152.747 21.4055 151.669 23.3078 151.669V150.669C20.9992 150.669 19.2188 151.989 18.4399 153.729C17.6583 155.475 17.8915 157.635 19.564 159.254L20.2596 158.536ZM142.599 171.669C144.97 171.669 147.003 169.976 147.432 167.644L146.448 167.463C146.107 169.32 144.488 170.669 142.599 170.669V171.669ZM122.594 165.174C121.973 168.553 124.568 171.669 128.004 171.669V170.669C125.192 170.669 123.069 168.119 123.578 165.354L122.594 165.174ZM131.695 111.637C132.035 112.445 132.131 113.333 131.973 114.195L132.956 114.376C133.15 113.323 133.032 112.237 132.617 111.25L131.695 111.637ZM127.038 107.669C128.849 107.669 130.484 108.755 131.186 110.425L132.108 110.038C131.25 107.997 129.252 106.669 127.038 106.669V107.669ZM98.4218 111.746C99.1994 109.45 101.135 107.669 103.429 107.669V106.669C100.583 106.669 98.3454 108.854 97.4746 111.426L98.4218 111.746ZM30.9624 106.669C28.7481 106.669 26.7496 107.997 25.8919 110.038L26.8138 110.425C27.5156 108.755 29.1507 107.669 30.9624 107.669V106.669ZM54.5706 107.669C56.8646 107.669 58.8006 109.45 59.5782 111.746L60.5254 111.426C59.6546 108.854 57.4168 106.669 54.5706 106.669V107.669ZM115.721 71.0381C114.864 68.9966 112.865 67.6686 110.651 67.6686V68.6686C112.462 68.6686 114.098 69.7551 114.799 71.4254L115.721 71.0381ZM118.634 97.6686C122.566 97.6686 125.228 93.6628 123.705 90.0381L122.783 90.4254C124.029 93.3911 121.851 96.6686 118.634 96.6686V97.6686ZM95.3667 94.5632C96.5155 96.3325 98.4087 97.6686 100.608 97.6686V96.6686C98.8319 96.6686 97.2212 95.583 96.2054 94.0186L95.3667 94.5632ZM57.3924 97.6686C59.5913 97.6686 61.4844 96.3325 62.6333 94.5632L61.7946 94.0186C60.7788 95.583 59.1681 96.6686 57.3924 96.6686V97.6686ZM43.2006 71.4254C43.9025 69.7551 45.5375 68.6686 47.3493 68.6686V67.6686C45.1349 67.6686 43.1365 68.9966 42.2787 71.0381L43.2006 71.4254ZM34.2954 90.0381C32.7723 93.6628 35.4342 97.6686 39.366 97.6686V96.6686C36.1491 96.6686 33.9712 93.3912 35.2173 90.4254L34.2954 90.0381ZM106.396 51.4254C107.642 54.3912 105.464 57.6686 102.247 57.6686V58.6686C106.179 58.6686 108.841 54.6628 107.318 51.0381L106.396 51.4254ZM96.3647 34.6686C98.1765 34.6686 99.8116 35.7551 100.513 37.4254L101.435 37.0381C100.578 34.9966 98.5791 33.6686 96.3647 33.6686V34.6686ZM50.6822 51.0381C49.1592 54.6628 51.8211 58.6686 55.7528 58.6686V57.6686C52.5359 57.6686 50.358 54.3912 51.6041 51.4255L50.6822 51.0381ZM57.4866 37.4254C58.1884 35.7551 59.8235 34.6686 61.6353 34.6686V33.6686C59.4209 33.6686 57.4225 34.9966 56.5647 37.0381L57.4866 37.4254ZM39.613 172.669C38.7506 172.669 37.9076 172.423 37.1914 171.952L36.6424 172.788C37.5262 173.369 38.561 173.669 39.613 173.669V172.669ZM87.5695 4.03807C86.7117 1.99658 84.7133 0.66861 82.4989 0.66861V1.66861C84.3107 1.66861 85.9458 2.75513 86.6476 4.42544L87.5695 4.03807ZM87.9612 24.6686C91.893 24.6686 94.5548 20.6628 93.0318 17.0381L92.1099 17.4254C93.356 20.3912 91.1781 23.6686 87.9612 23.6686V24.6686ZM71.3524 4.42544C72.0542 2.75513 73.6893 1.66861 75.5011 1.66861V0.66861C73.2867 0.66861 71.2883 1.99658 70.4305 4.03807L71.3524 4.42544ZM147.432 167.644C148.135 163.819 153.382 163.251 154.889 166.836L155.811 166.449C153.919 161.947 147.332 162.661 146.448 167.463L147.432 167.644ZM64.9682 17.0381C63.4452 20.6628 66.1071 24.6686 70.0388 24.6686V23.6686C66.8219 23.6686 64.644 20.3912 65.8901 17.4254L64.9682 17.0381Z" fill="white"/>
<rect x="159.647" y="66" width="14" height="21" transform="rotate(10 159.647 66)" fill="#AA1C0F"/>
</svg>
