<svg width="253" height="243" viewBox="0 0 253 243" fill="none" xmlns="http://www.w3.org/2000/svg">
<path fill-rule="evenodd" clip-rule="evenodd" d="M151.673 7.00594C150.571 6.92326 149.502 7.73415 149.284 8.81709L146.235 24H183.46L185.957 11.5697C186.174 10.4867 185.458 9.54181 184.356 9.45913L151.673 7.00594ZM180.337 30H145.03L139.205 59H176.43L176.92 56.5601C174.462 53.3577 173 49.3495 173 45C173 38.9029 175.872 33.4766 180.337 30ZM116.677 171.157L138 65H175.225L153.35 173.91C153.25 174.407 152.971 174.846 152.591 175.169H147.026L162.297 94.085C162.808 91.3713 160.991 88.9928 158.239 88.7724L144.292 87.656C141.54 87.4357 138.894 89.457 138.383 92.1707L123.042 173.625L118.278 173.268C117.176 173.185 116.46 172.24 116.677 171.157Z" fill="#FA2C22"/>
<circle cx="78" cy="104" r="15" fill="#0075F1" stroke="white" stroke-width="2"/>
<circle cx="192.5" cy="44.5" r="9.5" fill="#0075F1" stroke="white" stroke-width="2"/>
<mask id="path-4-inside-1_5_231" fill="white">
<path fill-rule="evenodd" clip-rule="evenodd" d="M122.257 211.52C182.779 214.692 233.244 190.508 234.974 157.504C235.561 146.295 230.452 135.511 221.077 126.031C238.967 139.162 249.32 155.851 248.118 173.334C245.602 209.952 193.345 236.185 131.401 231.928C78.0615 228.261 34.9311 203.182 25.5849 172.906C42.3876 193.656 79.044 209.255 122.257 211.52Z"/>
</mask>
<path fill-rule="evenodd" clip-rule="evenodd" d="M122.257 211.52C182.779 214.692 233.244 190.508 234.974 157.504C235.561 146.295 230.452 135.511 221.077 126.031C238.967 139.162 249.32 155.851 248.118 173.334C245.602 209.952 193.345 236.185 131.401 231.928C78.0615 228.261 34.9311 203.182 25.5849 172.906C42.3876 193.656 79.044 209.255 122.257 211.52Z" fill="#0075F1"/>
<path d="M234.974 157.504L236.971 157.608L236.971 157.608L234.974 157.504ZM122.257 211.52L122.153 213.517L122.153 213.517L122.257 211.52ZM221.077 126.031L222.261 124.419L219.655 127.437L221.077 126.031ZM248.118 173.334L250.114 173.471L250.114 173.471L248.118 173.334ZM131.401 231.928L131.264 233.923L131.264 233.923L131.401 231.928ZM25.5849 172.906L27.1392 171.647L23.6739 173.496L25.5849 172.906ZM232.976 157.399C232.168 172.827 219.918 186.632 199.798 196.274C179.757 205.878 152.355 211.094 122.362 209.522L122.153 213.517C152.682 215.117 180.773 209.827 201.527 199.881C222.203 189.973 236.05 175.184 236.971 157.608L232.976 157.399ZM219.655 127.437C228.763 136.647 233.526 146.913 232.976 157.399L236.971 157.608C237.596 145.678 232.141 134.374 222.499 124.625L219.655 127.437ZM219.894 127.643C237.482 140.553 247.26 156.659 246.123 173.197L250.114 173.471C251.38 155.043 240.452 137.771 222.261 124.419L219.894 127.643ZM246.123 173.197C244.933 190.515 231.944 205.732 211.148 216.172C190.398 226.588 162.216 232.041 131.538 229.932L131.264 233.923C162.53 236.072 191.449 230.537 212.942 219.746C234.39 208.98 248.787 192.771 250.114 173.471L246.123 173.197ZM131.538 229.932C105.129 228.117 81.3074 221.003 62.9788 210.654C44.6142 200.285 31.964 186.79 27.4959 172.316L23.6739 173.496C28.552 189.298 42.1401 203.481 61.0121 214.137C79.9203 224.813 104.333 232.072 131.264 233.923L131.538 229.932ZM122.362 209.522C79.4434 207.273 43.444 191.783 27.1392 171.647L24.0306 174.164C41.3311 195.53 78.6446 211.237 122.153 213.517L122.362 209.522Z" fill="white" mask="url(#path-4-inside-1_5_231)"/>
<path fill-rule="evenodd" clip-rule="evenodd" d="M229.877 9.6053C226.964 7.94713 223.592 7 220 7H151V24H239.776C239.405 21.5308 238.582 19.2094 237.395 17.1226L229.877 9.6053ZM180.337 30H151V59H179.155C175.371 55.527 173 50.5404 173 45C173 38.9029 175.872 33.4766 180.337 30ZM203.663 30C208.128 33.4766 211 38.9029 211 45C211 50.5404 208.629 55.527 204.845 59H240V30H203.663ZM151 84V65H239.975C239.828 67.9869 239.026 70.8014 237.709 73.303L229.303 81.7092C226.524 83.1721 223.359 84 220 84H151Z" fill="#FA2C22"/>
<path fill-rule="evenodd" clip-rule="evenodd" d="M68.7079 18.5289C65.1733 18.5289 62.7547 14.9613 64.0632 11.6779L67.4622 3.14896C68.2199 1.24755 70.0601 0 72.1069 0H83.8931C85.9399 0 87.7801 1.24754 88.5378 3.14895L91.9368 11.6778C93.2453 14.9613 90.8267 18.5289 87.2921 18.5289H68.7079ZM59.3897 31.9109C57.3428 31.9109 55.5027 33.1584 54.7449 35.0598L49.9588 47.0695C48.6503 50.353 51.0689 53.9206 54.6035 53.9206H101.396C104.931 53.9206 107.35 50.353 106.041 47.0695L101.255 35.0598C100.497 33.1584 98.6572 31.9109 96.6103 31.9109H59.3897ZM38.2167 95.0395C34.6821 95.0395 32.2634 91.4719 33.5719 88.1884L40.6405 70.4515C41.3983 68.5501 43.2384 67.3025 45.2853 67.3025H110.715C112.762 67.3025 114.602 68.5501 115.359 70.4515L122.428 88.1884C123.737 91.4719 121.318 95.0395 117.783 95.0395H110.114C107.947 95.0395 106.063 93.6238 105.157 91.6544C100.362 81.2215 90.0043 74 78 74C65.9957 74 55.6382 81.2215 50.8426 91.6544C49.9374 93.6238 48.0534 95.0395 45.8859 95.0395H38.2167ZM78 135.454C64.1555 135.454 52.5013 125.849 49.0434 112.79C48.3941 110.338 46.3021 108.421 43.7655 108.421H28.8984C26.8516 108.421 25.0114 109.669 24.2537 111.57L15.2454 134.174C13.9369 137.458 16.3556 141.025 19.8902 141.025H115C117.761 141.025 120 143.264 120 146.025V149.407C120 152.169 117.761 154.407 115 154.407H23.6099C19.3526 154.407 17.1636 159.29 20.2778 162.193C24.8789 166.481 30.1197 170.562 35.9169 174.37C36.7169 174.896 37.6558 175.169 38.613 175.169H153.922C155.418 175.169 156.423 173.49 155.825 171.989L154.947 169.786C153.717 166.701 149.218 167.145 148.615 170.41V170.41C148.325 171.981 146.956 173.12 145.359 173.12H129.168C126.043 173.12 123.684 170.285 124.251 167.212L133.383 117.753C133.554 116.826 133.46 115.87 133.111 114.994L131.746 111.57C130.989 109.669 129.148 108.421 127.102 108.421H112.235C109.698 108.421 107.606 110.338 106.957 112.79C103.499 125.849 91.8445 135.454 78 135.454ZM12.1818 175.169C16.4073 175.169 18.8184 170.166 16.6076 166.565C14.5169 163.159 12.7882 159.684 11.4503 156.163C11.0539 155.119 10.0671 154.407 8.95107 154.407V154.407C7.88293 154.407 6.92267 155.058 6.52723 156.051L0.17534 171.989C-0.422602 173.49 0.582112 175.169 2.0779 175.169H12.1818Z" fill="#FA2C22"/>
</svg>
